<?xml version="1.0" encoding="utf-8"?>
<!-- Generator: Adobe Illustrator 17.1.0, SVG Export Plug-In . SVG Version: 6.00 Build 0)  -->
<!DOCTYPE svg PUBLIC "-//W3C//DTD SVG 1.1//EN" "http://www.w3.org/Graphics/SVG/1.1/DTD/svg11.dtd">
<svg version="1.1" id="Layer_1" xmlns="http://www.w3.org/2000/svg" xmlns:xlink="http://www.w3.org/1999/xlink" x="0px" y="0px"
	 viewBox="0 0 30 26" enable-background="new 0 0 30 26" xml:space="preserve">
<symbol  id="Twitter_2" viewBox="-13.552 -11.014 27.105 22.027">
	<path fill="#FFFFFF" d="M10.779,5.525c0.012-0.234,0.016-0.473,0.016-0.715c0-7.351-5.594-15.824-15.821-15.824
		c-3.144,0-6.066,0.922-8.527,2.5c0.438-0.051,0.879-0.078,1.328-0.078c2.606,0,5,0.886,6.902,2.379
		c-2.429,0.047-4.484,1.652-5.191,3.863c0.34-0.066,0.688-0.102,1.047-0.102c0.508,0,1,0.071,1.465,0.196
		c-2.543,0.511-4.461,2.761-4.461,5.453v0.07c0.75-0.418,1.605-0.668,2.519-0.695c-1.492,0.996-2.472,2.699-2.472,4.629
		c0,1.019,0.273,1.972,0.75,2.797C-8.924,6.635-4.823,4.42-0.204,4.186c-0.094,0.41-0.145,0.832-0.145,1.27
		c0,3.07,2.492,5.558,5.563,5.558c1.601,0,3.046-0.676,4.058-1.754c1.266,0.25,2.457,0.711,3.531,1.348
		c-0.414-1.297-1.296-2.387-2.445-3.074c1.125,0.133,2.199,0.433,3.195,0.875C12.806,7.292,11.866,6.311,10.779,5.525L10.779,5.525z
		 M10.779,5.525"/>
</symbol>
<g id="twitter_circle">
	<path fill="#CECECE" d="M27.002,0H6.998C5.342,0,4,1.342,4,2.998V9l-4,4l4,4v6.002C4,24.658,5.342,26,6.998,26h20.005
		C28.658,26,30,24.658,30,23.002V2.998C30,1.342,28.658,0,27.002,0z"/>
	
		<use xlink:href="#Twitter_2"  width="27.105" height="22.027" id="XMLID_2_" x="-13.552" y="-11.014" transform="matrix(0.5067 0 0 -0.5067 17.3335 13)" overflow="visible"/>
</g>
</svg>
