<?xml version="1.0" encoding="utf-8"?>
<!-- Generator: Adobe Illustrator 17.1.0, SVG Export Plug-In . SVG Version: 6.00 Build 0)  -->
<!DOCTYPE svg PUBLIC "-//W3C//DTD SVG 1.1//EN" "http://www.w3.org/Graphics/SVG/1.1/DTD/svg11.dtd">
<svg version="1.1" id="Layer_1" xmlns="http://www.w3.org/2000/svg" xmlns:xlink="http://www.w3.org/1999/xlink" x="0px" y="0px"
	 viewBox="0 0 50 50" enable-background="new 0 0 50 50" xml:space="preserve">
<symbol  id="Buffer" viewBox="-10 -8.498 20 16.995">
	<path id="buffer_2_" fill="#FFFFFF" d="M9.976,4.08c-0.187-0.1-0.311-0.178-0.442-0.237c-3.021-1.359-6.041-2.722-9.07-4.064
		C0.217-0.336-0.064-0.356-0.324-0.276c-3.152,1.391-6.292,2.81-9.434,4.224c-0.066,0.04-0.129,0.085-0.188,0.134
		c0.187,0.1,0.338,0.186,0.5,0.258c2.987,1.344,5.976,2.681,8.959,4.035c0.297,0.159,0.652,0.164,0.953,0.013
		c3-1.364,6.005-2.709,9.01-4.06C9.62,4.259,9.765,4.183,9.976,4.08z M-10-4.085c0.805,0.361,1.5,0.7,2.227,0.981
		c0.244,0.071,0.505,0.054,0.737-0.05c2.2-0.969,4.394-1.953,6.581-2.953c0.281-0.15,0.617-0.152,0.9-0.006
		c2.185,1,4.379,1.984,6.582,2.951c0.288,0.105,0.605,0.105,0.893,0C8.608-3.419,9.267-3.755,10-4.087
		c-0.2-0.1-0.344-0.189-0.5-0.257c-3.021-1.36-6.041-2.724-9.071-4.064c-0.25-0.108-0.531-0.119-0.788-0.03
		C-3.476-7.06-6.581-5.656-9.688-4.257C-9.767-4.223-9.843-4.172-10-4.085z M10-0.003C9.782-0.115,9.64-0.198,9.49-0.265
		C6.484-1.618,3.48-2.974,0.466-4.309C0.219-4.424-0.062-4.443-0.322-4.363c-3.137,1.384-6.262,2.8-9.389,4.2
		c-0.066,0.03-0.126,0.073-0.276,0.162c0.829,0.376,1.583,0.742,2.359,1.049c0.22,0.03,0.444-0.015,0.635-0.129
		c2.164-0.962,4.326-1.928,6.478-2.916c0.313-0.169,0.689-0.173,1.005-0.01c2.169,0.996,4.347,1.972,6.534,2.929
		c0.288,0.104,0.604,0.104,0.892,0C8.6,0.669,9.254,0.334,10-0.003z"/>
</symbol>
<symbol  id="buffer_circle" viewBox="-25 -25 50 50">
	<path fill="#373636" d="M25,0c0-13.807-11.193-25-25-25S-25-13.807-25,0s11.193,25,25,25S25,13.807,25,0z"/>
	
		<use xlink:href="#Buffer"  width="20" height="16.995" x="-10" y="-8.498" transform="matrix(1 0 0 1 1 2.113393e-08)" overflow="visible"/>
</symbol>
</symbol>
<use xlink:href="#buffer_circle"  width="50" height="50" x="-25" y="-25" transform="matrix(1 0 0 -1 25 25)" overflow="visible"/>
</svg>
