<?xml version="1.0" encoding="utf-8"?>
<!-- Generator: Adobe Illustrator 17.1.0, SVG Export Plug-In . SVG Version: 6.00 Build 0)  -->
<!DOCTYPE svg PUBLIC "-//W3C//DTD SVG 1.1//EN" "http://www.w3.org/Graphics/SVG/1.1/DTD/svg11.dtd">
<svg version="1.1" id="Layer_1" xmlns="http://www.w3.org/2000/svg" xmlns:xlink="http://www.w3.org/1999/xlink" x="0px" y="0px"
	 viewBox="0 0 50 50" enable-background="new 0 0 50 50" xml:space="preserve">
<symbol  id="google__x2B_" viewBox="-8.915 -8.831 17.83 17.661">
	<path fill="#FFFFFF" d="M8.915,5.253h-2.46V2.92H5.261v2.333h-2.46v1.178h2.46v2.333h1.193V6.431h2.46V5.253z M-0.416,7.986
		c0.179-0.114,0.345-0.247,0.497-0.395c0.194-0.203,0.368-0.425,0.518-0.663C0.774,6.651,0.919,6.355,1.03,6.046
		C1.139,5.66,1.191,5.259,1.185,4.858c0.022-0.705-0.172-1.399-0.557-1.99C0.459,2.633,0.274,2.41,0.073,2.201
		C-0.144,1.998-0.374,1.79-0.62,1.58c-0.144-0.149-0.274-0.312-0.387-0.486c-0.14-0.189-0.214-0.419-0.21-0.655
		c-0.008-0.22,0.069-0.435,0.216-0.6c0.11-0.139,0.229-0.271,0.355-0.396L0.15-1.202C0.633-1.591,1.07-2.034,1.45-2.524
		c0.374-0.57,0.566-1.241,0.549-1.922C1.976-5.618,1.424-6.716,0.497-7.433C-0.794-8.411-2.39-8.902-4.008-8.819
		c-1.31-0.085-2.609,0.282-3.68,1.04C-8.441-7.267-8.899-6.421-8.915-5.51c0.02,0.502,0.156,0.993,0.4,1.434
		c0.321,0.59,0.809,1.072,1.402,1.386c0.742,0.422,1.552,0.712,2.393,0.857c0.683,0.107,1.371,0.174,2.062,0.203
		c-0.17,0.222-0.321,0.458-0.452,0.705c-0.16,0.263-0.24,0.567-0.231,0.874c-0.006,0.175,0.024,0.349,0.088,0.512
		c0.051,0.144,0.099,0.276,0.143,0.399c-0.25-0.029-0.501-0.044-0.753-0.045c-1.078-0.057-2.125,0.37-2.856,1.164
		c-0.663,0.653-1.034,1.546-1.029,2.477c0.024,1.193,0.554,2.319,1.458,3.098c0.602,0.51,1.314,0.873,2.079,1.063
		c0.658,0.138,1.328,0.21,2.001,0.215h4.691L1.033,7.994h-1.452L-0.416,7.986z M-3.467-2.313c-0.504-0.072-1.002-0.182-1.49-0.328
		c-0.12-0.045-0.288-0.114-0.504-0.204c-0.237-0.111-0.46-0.251-0.662-0.418C-6.347-3.462-6.533-3.7-6.672-3.965
		C-6.851-4.29-6.939-4.657-6.928-5.028c0.001-0.819,0.424-1.58,1.118-2.013c0.861-0.572,1.881-0.857,2.913-0.814
		c0.901-0.047,1.791,0.208,2.531,0.724c0.548,0.423,0.863,1.082,0.848,1.774C0.491-4.79,0.285-4.24-0.095-3.819
		c-0.597,0.564-1.242,1.075-1.927,1.527C-2.172-2.277-2.347-2.27-2.549-2.27C-2.856-2.262-3.163-2.276-3.467-2.313z M-1.515,6.549
		C-1.72,6.974-2.02,7.346-2.391,7.637c-0.372,0.264-0.815,0.41-1.271,0.419c-0.615-0.006-1.196-0.284-1.586-0.759
		C-5.6,6.794-5.779,6.19-5.757,5.576c0.023-0.921,0.279-1.821,0.744-2.616c0.236-0.417,0.552-0.782,0.931-1.075
		c0.371-0.292,0.831-0.448,1.303-0.442C-2.198,1.449-1.643,1.685-1.235,2.1c0.19,0.272,0.321,0.581,0.384,0.907
		c0.031,0.26,0.048,0.521,0.051,0.782C-0.816,4.752-1.061,5.699-1.515,6.549z"/>
</symbol>
<symbol  id="google_circle" viewBox="-25 -25 50 50">
	<path fill="#DD4B39" d="M25,0c0-13.807-11.193-25-25-25S-25-13.807-25,0s11.193,25,25,25S25,13.807,25,0z"/>
	
		<use xlink:href="#google__x2B_"  width="17.83" height="17.661" id="XMLID_4_" x="-8.915" y="-8.831" transform="matrix(1 0 0 1 0 -9.094947e-13)" overflow="visible"/>
</symbol>
<use xlink:href="#google_circle"  width="50" height="50" x="-25" y="-25" transform="matrix(1 0 0 -1 25 25)" overflow="visible"/>
</svg>
