<?xml version="1.0" encoding="utf-8"?>
<!-- Generator: Adobe Illustrator 17.1.0, SVG Export Plug-In . SVG Version: 6.00 Build 0)  -->
<!DOCTYPE svg PUBLIC "-//W3C//DTD SVG 1.1//EN" "http://www.w3.org/Graphics/SVG/1.1/DTD/svg11.dtd">
<svg version="1.1" id="Layer_1" xmlns="http://www.w3.org/2000/svg" xmlns:xlink="http://www.w3.org/1999/xlink" x="0px" y="0px"
	 viewBox="0 0 50 50" enable-background="new 0 0 50 50" xml:space="preserve">
<symbol  id="linkedin" viewBox="-9.784 -8.96 19.568 17.92">
	<path fill="#FFFFFF" d="M-9.541-8.958h4.122v12.09h-4.122V-8.958z M-7.452,8.96c-1.41,0-2.332-0.903-2.332-2.089
		c0-1.16,0.895-2.089,2.278-2.089h0.027c1.438,0,2.333,0.929,2.333,2.089C-5.174,8.057-6.041,8.96-7.452,8.96L-7.452,8.96z
		 M9.784-2.026c0,3.713-2.034,5.441-4.747,5.441C3.526,3.485,2.098,2.717,1.322,1.418V3.13h-4.123c0.054-1.135,0-12.09,0-12.09
		h4.123v6.753c-0.016,0.332,0.03,0.663,0.136,0.978c0.327,0.885,1.172,1.472,2.115,1.47c1.492,0,2.088-1.109,2.088-2.734v-6.467
		h4.123C9.784-8.958,9.784-2.026,9.784-2.026z"/>
</symbol>
<symbol  id="linkedin_circle" viewBox="-25 -25 50 50">
	<path fill="#0976B4" d="M25,0c0-13.807-11.193-25-25-25S-25-13.807-25,0s11.193,25,25,25S25,13.807,25,0z"/>
</symbol>
<use xlink:href="#linkedin_circle"  width="50" height="50" x="-25" y="-25" transform="matrix(1 0 0 -1 25 25.1802)" overflow="visible"/>
<use xlink:href="#linkedin"  width="19.568" height="17.92" x="-9.784" y="-8.96" transform="matrix(1 0 0 -1 25 25)" overflow="visible"/>
</svg>
